HIERARCHY
ROOT Hips
{
	OFFSET 0.000000 89.005402 0.000000
	CHANNELS 6 Xposition Yposition Zposition Xrotation Yrotation Zrotation
	JOINT Spine
	{
		OFFSET 0.116900 10.681000 0.373400
		CHANNELS 3 Xrotation Yrotation Zrotation
		JOINT Spine1
		{
			OFFSET 0.000000 13.840401 0.053500
			CHANNELS 3 Xrotation Yrotation Zrotation
			JOINT Spine2
			{
				OFFSET 0.000000 14.712700 -0.366200
				CHANNELS 3 Xrotation Yrotation Zrotation
				JOINT Neck
				{
					OFFSET 0.000000 35.415497 -3.314200
					CHANNELS 3 Xrotation Yrotation Zrotation
					JOINT Head
					{
						OFFSET 0.000000 16.899200 1.218300
						CHANNELS 3 Xrotation Yrotation Zrotation
						JOINT HeadTop_End
						{
							OFFSET 0.000000 22.206207 2.192500
							CHANNELS 3 Xrotation Yrotation Zrotation
							End Site
							{
								OFFSET 0.000000 22.314178 0.000000
							}
						}
					}
				}
				JOINT LeftShoulder
				{
					OFFSET 12.896400 26.716293 -4.548400
					CHANNELS 3 Xrotation Yrotation Zrotation
					JOINT LeftArm
					{
						OFFSET 19.027000 -4.857010 -1.718400
						CHANNELS 3 Xrotation Yrotation Zrotation
						JOINT LeftForeArm
						{
							OFFSET 24.179897 0.000000 0.000000
							CHANNELS 3 Xrotation Yrotation Zrotation
							JOINT LeftHand
							{
								OFFSET 27.156403 0.000000 0.000000
								CHANNELS 3 Xrotation Yrotation Zrotation
								JOINT LeftHandIndex1
								{
									OFFSET 16.441200 0.000000 0.000000
									CHANNELS 3 Xrotation Yrotation Zrotation
									JOINT LeftHandIndex2
									{
										OFFSET 4.821899 0.000000 0.000000
										CHANNELS 3 Xrotation Yrotation Zrotation
										JOINT LeftHandIndex3
										{
											OFFSET 6.386497 0.000000 0.000000
											CHANNELS 3 Xrotation Yrotation Zrotation
											JOINT LeftHandIndex4
											{
												OFFSET 5.188988 0.000000 0.000000
												CHANNELS 3 Xrotation Yrotation Zrotation
												End Site
												{
													OFFSET -0.178703 5.185913 0.000177
												}
											}
										}
									}
								}
								JOINT LeftHandThumb1
								{
									OFFSET 6.534897 -5.032593 5.900300
									CHANNELS 3 Xrotation Yrotation Zrotation
									JOINT LeftHandThumb2
									{
										OFFSET 3.818176 -2.204422 2.204423
										CHANNELS 3 Xrotation Yrotation Zrotation
										JOINT LeftHandThumb3
										{
											OFFSET 3.252098 -1.877594 1.877601
											CHANNELS 3 Xrotation Yrotation Zrotation
											JOINT LeftHandThumb4
											{
												OFFSET 5.251778 -3.032120 3.032117
												CHANNELS 3 Xrotation Yrotation Zrotation
												End Site
												{
													OFFSET 0.000023 6.780014 0.000000
												}
											}
										}
									}
								}
							}
						}
					}
				}
				JOINT RightShoulder
				{
					OFFSET -12.896300 26.716293 -4.548400
					CHANNELS 3 Xrotation Yrotation Zrotation
					JOINT RightArm
					{
						OFFSET -19.027000 -4.857010 -1.718400
						CHANNELS 3 Xrotation Yrotation Zrotation
						JOINT RightForeArm
						{
							OFFSET -24.179897 0.000000 0.000000
							CHANNELS 3 Xrotation Yrotation Zrotation
							JOINT RightHand
							{
								OFFSET -27.156403 0.000000 0.000000
								CHANNELS 3 Xrotation Yrotation Zrotation
								JOINT RightHandThumb1
								{
									OFFSET -6.591202 -4.852203 5.988100
									CHANNELS 3 Xrotation Yrotation Zrotation
									JOINT RightHandThumb2
									{
										OFFSET -3.818176 -2.204422 2.204423
										CHANNELS 3 Xrotation Yrotation Zrotation
										JOINT RightHandThumb3
										{
											OFFSET -3.252098 -1.877594 1.877601
											CHANNELS 3 Xrotation Yrotation Zrotation
											JOINT RightHandThumb4
											{
												OFFSET -5.251778 -3.032120 3.032117
												CHANNELS 3 Xrotation Yrotation Zrotation
												End Site
												{
													OFFSET -0.000023 6.780014 0.000000
												}
											}
										}
									}
								}
								JOINT RightHandIndex1
								{
									OFFSET -16.029404 0.000000 0.000000
									CHANNELS 3 Xrotation Yrotation Zrotation
									JOINT RightHandIndex2
									{
										OFFSET -5.213303 0.000000 0.000000
										CHANNELS 3 Xrotation Yrotation Zrotation
										JOINT RightHandIndex3
										{
											OFFSET -6.386528 0.000000 0.000000
											CHANNELS 3 Xrotation Yrotation Zrotation
											JOINT RightHandIndex4
											{
												OFFSET -5.189026 0.000000 0.000000
												CHANNELS 3 Xrotation Yrotation Zrotation
												End Site
												{
													OFFSET 0.236702 5.183624 0.001972
												}
											}
										}
									}
								}
							}
						}
					}
				}
			}
		}
	}
	JOINT LeftUpLeg
	{
		OFFSET 14.073000 -7.904099 -1.463000
		CHANNELS 3 Xrotation Yrotation Zrotation
		JOINT LeftLeg
		{
			OFFSET -0.109806 -34.073280 4.093200
			CHANNELS 3 Xrotation Yrotation Zrotation
			JOINT LeftFoot
			{
				OFFSET 0.109806 -29.899420 -6.319000
				CHANNELS 3 Xrotation Yrotation Zrotation
				JOINT LeftToeBase
				{
					OFFSET 1.551100 -14.988700 20.535801
					CHANNELS 3 Xrotation Yrotation Zrotation
					JOINT LeftToe_End
					{
						OFFSET 0.221200 0.570800 13.248301
						CHANNELS 3 Xrotation Yrotation Zrotation
						End Site
						{
							OFFSET 0.000000 13.262435 0.000000
						}
					}
				}
			}
		}
	}
	JOINT RightUpLeg
	{
		OFFSET -13.839300 -7.904099 -1.463000
		CHANNELS 3 Xrotation Yrotation Zrotation
		JOINT RightLeg
		{
			OFFSET 0.109694 -34.073219 4.093300
			CHANNELS 3 Xrotation Yrotation Zrotation
			JOINT RightFoot
			{
				OFFSET -0.109694 -29.899384 -6.319200
				CHANNELS 3 Xrotation Yrotation Zrotation
				JOINT RightToeBase
				{
					OFFSET -1.551100 -14.988700 20.535801
					CHANNELS 3 Xrotation Yrotation Zrotation
					JOINT RightToe_End
					{
						OFFSET -0.221200 0.570900 13.248299
						CHANNELS 3 Xrotation Yrotation Zrotation
						End Site
						{
							OFFSET 0.000000 13.262440 0.000000
						}
					}
				}
			}
		}
	}
}
MOTION
Frames: 7
Frame Time: 0.033333
-0.138165 81.257011 1.644093 2.651199 3.316282 -0.626565 7.549922 -6.202366 1.402010 1.521356 -1.732194 0.427585 1.526710 -1.720376 0.459609 -0.463458 0.556694 -0.008196 -17.429589 2.367879 0.105933 0.000001 0.000000 0.000000 3.106481 -0.834241 -8.259580 17.283778 -48.962194 -41.182410 -0.000007 -69.723739 -0.000001 -60.384097 -18.986109 14.849490 8.217932 -16.471811 -19.121378 0.381233 2.080570 -20.763317 0.131217 1.234284 -12.136936 -0.000000 0.000001 0.000001 -1.840850 -9.507500 -9.240969 3.451790 2.496478 -2.901806 -4.638798 5.770481 5.875204 -0.000002 -0.000000 0.000000 0.544332 16.154331 5.575212 11.361402 22.007523 53.409696 0.000059 74.725411 -0.000044 -56.215093 -2.062562 -3.562991 -13.238813 13.184481 18.517150 7.314631 -18.366848 0.875731 -2.065751 -11.338672 -7.062743 0.000001 -0.000002 -0.000000 -0.926365 7.566428 24.668902 0.344579 -1.759736 22.156802 0.039813 -0.608321 7.489058 -0.000002 -0.000001 0.000001 -26.434862 2.299275 4.077288 40.577450 -8.865030 7.294440 -17.383851 -2.521394 -6.734591 -1.435512 -0.000000 -0.000000 0.000000 -0.000000 0.000000 -20.444225 -9.825438 -13.665429 37.811695 -5.126974 0.426376 -21.339562 12.150828 12.298111 -4.591937 -0.000001 -0.000003 0.000000 -0.000000 0.000000 
0.243801 81.144691 2.130346 3.680765 3.369671 -0.884264 7.285879 -5.910126 1.856407 1.453744 -1.660502 0.524036 1.457629 -1.648417 0.553122 -0.566595 0.496344 -0.056260 -17.950005 1.920586 -0.219567 -0.000000 0.000001 0.000000 3.043230 -1.233188 -8.321413 15.209257 -49.427350 -40.180203 0.000036 -70.594916 0.000037 -62.374360 -16.751690 12.529193 8.037430 -15.292980 -18.725898 0.362622 2.030933 -20.245405 0.129508 1.226270 -12.056954 -0.000003 -0.000000 -0.000002 -2.523618 -9.129776 -9.120498 3.417841 3.099998 -1.628387 -4.831833 5.385880 6.234232 0.000003 -0.000002 0.000001 0.505896 16.684443 5.536966 8.145730 20.081342 53.828892 -0.000037 73.098098 0.000049 -61.301877 -3.337452 -0.211300 -13.055984 13.012881 17.392394 7.275658 -18.160669 0.719581 -2.065754 -11.338682 -7.062729 0.000000 -0.000002 0.000000 -0.640584 7.076743 23.513672 0.310664 -1.674074 21.024777 0.035876 -0.577416 7.106618 -0.000001 0.000000 -0.000001 -27.412930 2.239868 3.932403 41.230655 -8.742909 7.313754 -18.016693 -2.548290 -6.361011 -1.435517 -0.000003 -0.000001 0.000000 0.000001 0.000000 -21.238200 -9.691583 -13.741956 38.144738 -5.363896 0.411789 -21.388283 12.192506 12.443970 -5.098252 -0.000001 -0.000002 -0.000000 -0.000000 0.000000 
0.702498 81.002136 2.624441 4.634675 3.267632 -0.989645 7.143835 -5.724869 2.259125 1.412711 -1.616707 0.617859 1.415461 -1.604346 0.644824 -0.714647 0.461075 -0.133735 -18.598443 1.575581 -0.357250 0.000000 0.000000 0.000000 2.985427 -1.553139 -8.377159 12.612014 -49.433252 -38.655568 0.000038 -70.911222 0.000040 -62.683405 -13.389928 7.398103 7.800056 -14.122850 -18.728116 0.372575 2.057704 -20.524437 0.144136 1.292837 -12.722358 0.000002 -0.000001 0.000000 -3.714787 -8.555170 -9.739086 3.158237 3.766978 0.922518 -5.078095 4.932201 6.502696 -0.000000 0.000002 0.000000 0.487444 17.302392 5.402990 4.297065 17.785594 54.304280 0.000082 71.078562 -0.000076 -67.418537 -5.775569 3.638407 -12.946530 12.864403 16.427696 7.240635 -17.974510 0.578599 -2.065755 -11.338687 -7.062752 0.000001 0.000001 0.000003 -0.367487 6.652405 22.476814 0.282642 -1.599274 20.043641 0.032593 -0.550615 6.775149 -0.000004 -0.000003 0.000001 -28.235229 2.289947 3.583310 41.876563 -8.415704 7.357108 -18.713735 -2.612623 -5.976097 -1.435518 -0.000001 -0.000001 -0.000000 0.000000 0.000000 -22.487252 -9.335948 -14.204202 39.116435 -5.354974 0.423796 -21.304217 12.154905 12.868908 -6.337862 -0.000004 0.000002 0.000000 0.000000 0.000000 
1.215390 80.813324 3.218459 5.588560 3.320085 -0.982530 6.921969 -5.526718 2.452707 1.363146 -1.562481 0.697173 1.364918 -1.550696 0.722103 -0.869542 0.441014 -0.226426 -19.166120 1.239834 -0.359597 0.000000 0.000000 -0.000000 2.929062 -1.773382 -8.285239 9.709192 -49.352956 -36.811178 -0.000012 -70.563326 -0.000004 -62.144551 -9.950635 0.817117 7.507547 -12.961748 -19.063744 0.408541 2.151210 -21.503387 0.175480 1.424595 -14.044740 0.000001 -0.000001 -0.000000 -5.295166 -7.780712 -10.956010 2.683250 4.480503 4.595259 -5.375104 4.411854 6.672537 0.000001 -0.000000 0.000003 0.470723 17.931234 5.290261 0.330559 15.423588 54.444664 0.000005 68.587523 -0.000003 -73.753749 -9.689479 8.506869 -12.906764 12.744510 15.637066 7.209893 -17.811342 0.454973 -2.065749 -11.338670 -7.062745 -0.000000 0.000002 -0.000000 -0.109121 6.300718 21.574295 0.260384 -1.536914 19.230095 0.029990 -0.528382 6.500272 0.000003 0.000001 -0.000000 -29.020729 2.434845 3.060483 42.590676 -8.204280 7.386660 -19.494388 -2.727833 -5.458801 -1.435521 0.000001 -0.000000 0.000000 -0.000000 0.000000 -23.795652 -8.907027 -14.893736 40.361702 -5.430069 0.434195 -21.334424 12.062372 13.436225 -7.891726 -0.000000 -0.000001 -0.000000 0.000000 0.000000 
1.772309 80.611000 3.925166 6.517594 3.270231 -0.811580 6.407752 -5.047284 2.265268 1.252298 -1.419169 0.736767 1.253053 -1.409751 0.758075 -0.990782 0.410622 -0.296221 -19.463399 0.838834 -0.376142 0.000000 0.000000 0.000000 2.866071 -1.987598 -7.990038 6.935272 -49.294725 -35.090462 -0.000033 -69.725105 -0.000037 -60.868692 -7.425504 -4.050964 7.161964 -11.807949 -19.582458 0.463322 2.285291 -22.918700 0.221259 1.596444 -15.781379 -0.000000 0.000001 0.000001 -7.039156 -6.849397 -12.471125 2.059629 5.216279 8.967322 -5.709770 3.840364 6.754790 -0.000001 0.000002 0.000003 0.418579 18.527573 5.370897 -3.052136 13.347565 53.906032 -0.000039 65.924562 0.000045 -79.520887 -14.212565 13.616786 -12.918591 12.654589 15.013017 7.183658 -17.671689 0.349103 -2.065756 -11.338674 -7.062741 0.000001 0.000001 0.000001 0.127700 6.019343 20.807393 0.243240 -1.486888 18.580512 0.028016 -0.510617 6.280782 0.000002 -0.000005 0.000002 -29.568306 2.711764 2.361442 43.200595 -7.880177 7.422986 -20.375470 -2.866583 -4.922967 -1.435511 -0.000003 -0.000002 -0.000000 -0.000000 -0.000000 -25.010058 -8.449494 -15.790284 41.536737 -5.300099 0.436693 -21.494139 11.928272 14.035776 -9.340849 -0.000002 -0.000003 -0.000000 -0.000000 -0.000000 
2.398087 80.469933 4.693192 8.089455 2.031340 -0.018286 5.746735 -4.263431 1.769590 1.088837 -1.185176 0.723613 1.088569 -1.179677 0.739685 -1.074712 0.349674 -0.305764 -19.606008 0.373668 -0.534511 0.000000 0.000001 0.000000 2.801110 -2.199174 -7.561248 4.721285 -49.094727 -33.828940 -0.000075 -68.689662 -0.000068 -58.568210 -6.089926 -5.273958 6.769742 -10.659981 -20.098663 0.525753 2.427518 -24.436907 0.275518 1.777132 -17.623976 -0.000000 0.000000 -0.000000 -8.711556 -5.853676 -13.932374 1.373413 5.966273 13.501127 -6.063584 3.239767 6.768420 0.000003 -0.000003 -0.000002 0.305936 19.004723 5.753961 -5.514544 11.637465 52.759311 -0.000032 63.668510 0.000031 -84.169022 -17.330131 17.609841 -12.957618 12.592232 14.534660 7.161710 -17.554360 0.260139 -2.065754 -11.338662 -7.062735 -0.000001 -0.000002 -0.000001 0.334538 5.800414 20.167054 0.230359 -1.448040 18.077918 0.026521 -0.496862 6.110955 -0.000001 -0.000002 0.000000 -29.999827 3.297763 1.100262 42.917992 -6.321873 7.562460 -21.179694 -2.935671 -4.847346 -1.435507 -0.000001 0.000000 0.000000 0.000001 -0.000000 -27.292323 -7.630293 -17.178677 42.333680 -4.070605 0.355851 -21.401867 11.906071 14.300730 -10.266187 -0.000000 -0.000001 -0.000000 0.000000 0.000000 
3.175020 80.335083 5.552691 9.107210 1.322748 0.734652 5.513921 -3.599949 1.304983 0.970205 -0.991325 0.683645 0.968964 -0.989847 0.695712 -1.168941 0.274890 -0.256242 -19.981787 -0.028234 -0.858614 0.000000 -0.000000 -0.000000 2.745385 -2.318541 -7.143544 3.226798 -48.404229 -32.964597 0.000012 -67.734153 0.000011 -55.621219 -5.361345 -4.291188 6.341987 -9.525192 -20.446503 0.584017 2.551779 -25.778456 0.330248 1.940947 -19.311144 -0.000001 -0.000000 0.000002 -10.160176 -4.909190 -15.040531 0.655850 6.735151 17.732440 -6.421695 2.627826 6.708669 -0.000000 0.000002 -0.000003 0.162433 19.143538 6.349972 -7.391884 10.117381 51.501945 -0.000001 62.089978 -0.000001 -87.325656 -18.060574 20.134993 -13.005992 12.554360 14.188765 7.143588 -17.458981 0.187719 -2.065754 -11.338685 -7.062734 -0.000000 -0.000002 0.000001 0.504519 5.639701 19.649035 0.221205 -1.419682 17.711691 0.025456 -0.486832 5.987203 0.000001 -0.000001 0.000000 -29.888413 4.015724 -0.268852 42.735599 -5.364942 7.649437 -22.005589 -3.086481 -4.347700 -1.435520 0.000004 0.000001 -0.000000 -0.000000 0.000000 -28.274823 -6.931033 -18.634691 42.576766 -3.208770 0.295806 -21.696507 11.737619 14.974724 -10.627489 0.000002 -0.000002 0.000000 0.000000 -0.000000 
